<?xml version="1.0" encoding="UTF-8" ?>
<!DOCTYPE svg PUBLIC "-//W3C//DTD SVG 1.1//EN" "http://www.w3.org/Graphics/SVG/1.1/DTD/svg11.dtd">
<svg width="448pt" height="188pt" viewBox="0 0 448 188" version="1.1" xmlns="http://www.w3.org/2000/svg">
<path fill="#fefffe" d=" M 0.00 0.00 L 107.96 0.00 C 72.12 16.08 36.29 32.17 0.40 48.14 C 1.85 50.33 3.31 52.51 4.79 54.69 C 40.23 39.04 75.49 23.00 110.90 7.30 C 145.57 22.96 180.27 38.58 215.06 53.96 C 216.30 51.66 217.58 49.39 218.87 47.12 C 183.89 31.31 148.71 15.96 113.81 0.00 L 448.00 0.00 L 448.00 188.00 L 0.00 188.00 L 0.00 0.00 Z" />
<path fill="#2b0b3d" d=" M 107.96 0.00 L 113.81 0.00 C 148.71 15.96 183.89 31.31 218.87 47.12 C 217.58 49.39 216.30 51.66 215.06 53.96 C 180.27 38.58 145.57 22.96 110.90 7.30 C 75.49 23.00 40.23 39.04 4.79 54.69 C 3.31 52.51 1.85 50.33 0.40 48.14 C 36.29 32.17 72.12 16.08 107.96 0.00 Z" />
<path fill="#2b0b3d" d=" M 37.84 52.83 C 52.60 37.73 78.92 34.98 95.65 48.37 C 101.77 53.35 107.16 59.40 110.25 66.75 C 116.30 55.03 126.54 44.86 139.54 41.42 C 150.19 38.83 161.66 39.92 171.67 44.35 C 189.32 52.36 198.97 73.43 195.41 92.18 C 193.77 104.25 188.03 115.26 181.09 125.09 C 173.94 135.42 165.26 144.54 156.37 153.37 C 144.01 164.79 131.14 175.81 116.78 184.66 C 113.62 186.85 109.20 187.33 105.99 184.96 C 93.61 176.96 82.29 167.45 71.16 157.83 C 61.54 149.08 52.67 139.56 44.48 129.47 C 34.38 117.06 26.06 102.28 25.00 86.01 C 24.57 73.87 28.52 61.04 37.84 52.83 Z" />
<path fill="#fefffe" d=" M 35.76 73.89 C 40.44 55.54 61.65 44.27 79.63 49.37 C 91.58 52.90 101.68 62.56 105.29 74.53 C 106.46 78.26 104.62 81.89 103.66 85.43 C 104.62 85.45 106.54 85.48 107.50 85.49 C 106.64 90.93 109.48 95.89 109.76 101.21 C 109.84 105.98 106.18 110.09 101.57 111.02 C 101.55 109.46 101.54 107.91 101.54 106.36 C 103.19 106.58 104.85 106.72 106.52 106.73 C 105.26 105.38 103.79 104.26 102.30 103.20 C 104.46 100.01 106.59 96.61 106.41 92.59 C 101.28 93.10 96.00 93.62 91.43 96.23 C 93.33 99.12 96.50 100.77 98.56 103.48 C 99.45 108.00 96.97 113.18 92.51 114.71 C 90.19 115.85 87.62 114.79 85.27 114.35 C 82.01 113.70 79.15 110.72 75.69 111.82 C 74.71 115.01 77.71 116.77 80.12 117.96 C 83.39 119.63 87.14 119.61 90.72 119.73 C 92.67 126.60 96.64 133.36 103.07 136.85 C 111.46 141.26 121.68 142.77 130.74 139.56 C 136.76 137.17 141.49 132.35 145.09 127.09 C 147.28 123.93 148.79 120.27 148.91 116.38 C 148.27 116.36 146.99 116.33 146.35 116.31 C 141.70 122.01 138.68 129.28 132.20 133.27 C 126.16 137.26 118.40 137.41 111.63 135.45 C 106.86 133.86 101.99 131.61 99.22 127.19 C 102.75 123.85 105.18 119.58 105.64 114.70 C 110.64 110.93 115.41 105.72 115.13 99.01 C 114.48 92.59 111.92 86.13 113.96 79.67 C 117.79 68.10 125.95 57.55 137.12 52.31 C 144.92 48.58 154.02 47.38 162.43 49.55 C 170.43 51.21 177.42 56.35 182.21 62.85 C 188.65 72.45 188.55 84.93 185.91 95.79 C 184.27 103.30 180.68 110.19 176.76 116.73 C 175.41 118.82 173.89 121.58 171.03 121.53 C 165.21 122.40 160.14 117.90 157.96 112.87 C 154.08 103.77 154.27 93.65 154.95 83.97 C 155.29 79.10 157.13 74.41 156.81 69.49 C 155.57 69.46 154.34 69.45 153.11 69.45 C 149.39 77.41 149.54 86.40 149.66 94.99 C 149.60 104.04 151.86 113.36 157.29 120.72 C 160.29 124.58 164.92 126.64 169.67 127.28 C 161.05 135.79 152.88 144.79 143.59 152.60 C 134.89 160.72 125.22 167.71 115.44 174.46 C 112.94 176.40 109.23 176.09 106.80 174.19 C 94.12 165.82 82.89 155.51 71.61 145.39 C 61.65 135.93 52.37 125.63 45.01 114.00 C 38.10 102.04 32.32 87.88 35.76 73.89 Z" />
<path fill="#2b0b3d" d=" M 242.63 49.29 C 244.13 49.32 245.63 49.34 247.13 49.36 C 247.03 56.07 247.08 62.78 247.09 69.49 C 245.61 69.50 244.13 69.52 242.65 69.53 C 242.62 62.78 242.63 56.04 242.63 49.29 Z" />
<path fill="#2b0b3d" d=" M 296.31 49.27 C 297.76 49.31 299.21 49.32 300.66 49.33 C 300.68 56.08 300.75 62.82 300.67 69.57 C 299.21 69.54 297.76 69.51 296.30 69.49 C 296.34 62.75 296.31 56.01 296.31 49.27 Z" />
<path fill="#2b0b3d" d=" M 346.71 55.30 C 346.67 53.31 346.65 51.32 346.65 49.34 C 348.17 49.35 349.71 49.37 351.24 49.38 C 351.09 56.11 351.29 62.83 351.14 69.56 C 347.34 68.87 343.49 69.99 339.73 69.36 C 335.87 67.21 335.91 61.51 338.32 58.29 C 340.17 55.56 343.81 55.71 346.71 55.30 Z" />
<path fill="#2b0b3d" d=" M 228.42 52.49 C 231.69 50.17 235.92 50.84 239.67 51.04 C 239.58 52.16 239.48 53.28 239.39 54.41 C 236.39 54.69 232.30 53.21 230.36 56.33 C 228.53 59.26 228.79 64.25 232.30 65.86 C 234.72 66.49 237.22 65.93 239.64 65.62 C 239.62 66.84 239.62 68.06 239.61 69.27 C 235.94 69.54 231.92 70.31 228.53 68.46 C 222.80 65.27 223.06 55.93 228.42 52.49 Z" />
<path fill="#2b0b3d" d=" M 251.84 68.15 C 247.14 64.43 249.89 55.36 256.08 55.36 C 260.85 54.48 264.46 58.75 263.78 63.35 C 260.34 63.43 256.89 63.35 253.46 63.52 C 254.77 67.88 259.60 66.92 262.94 65.94 C 262.92 66.77 262.86 68.42 262.83 69.25 C 259.22 69.38 254.87 70.78 251.84 68.15 Z" />
<path fill="#2b0b3d" d=" M 280.46 66.43 C 277.12 61.20 282.56 53.79 288.57 55.51 C 292.61 55.73 294.10 59.84 293.99 63.32 C 290.52 63.44 287.05 63.35 283.59 63.55 C 284.65 64.73 285.35 66.65 287.19 66.72 C 289.22 66.89 291.23 66.38 293.24 66.12 C 293.04 67.22 292.85 68.32 292.66 69.43 C 288.51 69.50 282.92 70.86 280.46 66.43 Z" />
<path fill="#2b0b3d" d=" M 304.49 56.01 C 308.32 55.56 313.45 54.20 316.26 57.69 C 317.04 61.60 316.54 65.64 316.56 69.60 C 312.10 68.53 306.77 71.25 303.20 67.53 C 303.60 65.95 303.85 64.26 304.87 62.94 C 307.02 61.36 309.79 61.30 312.28 60.65 C 312.23 60.15 312.11 59.17 312.05 58.67 C 309.56 58.33 307.04 58.67 304.56 58.92 C 304.54 58.19 304.51 56.74 304.49 56.01 Z" />
<path fill="#2b0b3d" d=" M 320.30 55.57 C 322.97 55.91 325.66 56.24 328.32 55.57 C 330.52 55.00 333.55 55.95 333.87 58.51 C 334.53 62.11 334.09 65.80 334.21 69.44 C 332.71 69.48 331.22 69.52 329.73 69.58 C 329.60 66.14 329.98 62.67 329.44 59.26 C 327.88 57.21 325.70 59.65 324.89 61.18 C 324.35 63.94 324.67 66.77 324.62 69.56 C 323.19 69.54 321.76 69.52 320.34 69.51 C 320.31 64.86 320.31 60.22 320.30 55.57 Z" />
<path fill="#2b0b3d" d=" M 263.89 55.57 C 265.48 55.65 267.10 55.63 268.69 55.92 C 270.02 58.53 270.84 61.38 271.84 64.13 C 272.78 61.69 273.89 59.32 274.72 56.83 C 275.85 55.00 278.18 55.85 279.93 55.58 C 278.09 60.17 276.24 64.77 274.05 69.21 C 272.65 69.52 271.22 69.57 269.80 69.70 C 267.87 64.97 265.65 60.37 263.89 55.57 Z" />
<path fill="#fefffe" d=" M 254.82 58.54 C 256.05 58.50 257.28 58.48 258.52 58.45 C 258.66 59.01 258.95 60.12 259.09 60.68 C 257.44 60.66 255.79 60.65 254.14 60.63 C 254.31 60.11 254.65 59.06 254.82 58.54 Z" />
<path fill="#fefffe" d=" M 283.48 60.27 C 284.91 59.19 286.54 58.46 288.30 58.09 C 288.81 58.96 289.32 59.83 289.84 60.71 C 287.71 60.66 285.58 60.55 283.48 60.27 Z" />
<path fill="#fefffe" d=" M 341.54 60.48 C 342.49 58.53 344.73 58.57 346.57 58.27 C 346.59 61.07 347.29 64.37 344.93 66.48 C 343.77 66.35 342.62 66.30 341.46 66.31 C 341.39 64.37 341.10 62.39 341.54 60.48 Z" />
<path fill="#fefffe" d=" M 306.76 65.05 C 308.69 64.33 310.66 63.71 312.66 63.20 C 311.99 64.56 311.29 65.90 310.57 67.23 C 309.26 66.56 308.02 65.79 306.76 65.05 Z" />
<path fill="#2b0b3d" d=" M 44.64 72.92 C 44.73 69.67 46.20 65.25 50.04 65.04 C 56.20 64.55 62.37 65.90 68.36 67.28 C 68.66 68.11 69.27 69.77 69.57 70.60 C 63.62 74.06 56.66 68.80 50.34 71.24 C 48.40 78.18 51.51 84.94 51.85 91.79 C 51.40 92.41 50.48 93.66 50.02 94.28 C 44.99 88.52 44.45 80.24 44.64 72.92 Z" />
<path fill="#2b0b3d" d=" M 233.25 79.84 C 235.49 79.32 237.81 79.54 240.09 79.48 C 243.93 88.60 247.65 97.77 251.39 106.93 C 249.02 106.97 246.64 106.96 244.27 106.86 C 243.65 105.06 243.05 103.26 242.45 101.46 C 238.52 101.42 234.58 101.38 230.65 101.45 C 230.05 103.23 229.47 105.01 228.88 106.80 C 226.65 106.90 224.43 106.93 222.20 106.93 C 226.02 97.95 229.34 88.77 233.25 79.84 Z" />
<path fill="#2b0b3d" d=" M 72.11 83.68 C 72.81 83.44 74.21 82.96 74.91 82.72 C 77.56 85.95 80.77 88.67 84.71 90.18 C 84.68 90.95 84.61 92.49 84.58 93.26 C 78.73 94.51 72.48 89.62 72.11 83.68 Z" />
<path fill="#2b0b3d" d=" M 136.56 85.31 C 137.60 85.42 138.64 85.54 139.68 85.67 C 140.55 91.93 135.10 97.24 129.05 97.46 C 127.24 97.75 126.12 96.16 125.10 94.97 C 127.10 93.61 129.26 92.53 131.38 91.38 C 133.87 90.14 135.13 87.54 136.56 85.31 Z" />
<path fill="#fefffe" d=" M 236.56 86.18 C 237.62 89.86 239.03 93.41 240.49 96.95 C 237.76 96.95 235.03 96.92 232.31 96.90 C 234.01 93.45 235.43 89.86 236.56 86.18 Z" />
<path fill="#2b0b3d" d=" M 253.52 85.71 C 256.33 85.74 259.15 85.78 261.97 85.80 C 264.78 90.09 267.64 94.35 270.72 98.44 C 270.87 94.21 270.78 89.98 270.72 85.74 C 272.80 85.76 274.89 85.79 276.97 85.81 C 276.95 92.84 277.00 99.86 276.94 106.88 C 274.15 106.83 271.26 107.33 268.55 106.56 C 265.44 102.66 263.07 98.21 259.70 94.50 C 259.58 98.64 259.64 102.78 259.67 106.92 C 257.63 106.94 255.58 106.95 253.54 106.96 C 253.57 99.88 253.60 92.79 253.52 85.71 Z" />
<path fill="#2b0b3d" d=" M 283.20 85.75 C 285.26 85.76 287.33 85.77 289.41 85.78 C 289.41 92.84 289.35 99.90 289.47 106.96 C 287.35 106.95 285.25 106.93 283.14 106.91 C 283.18 99.85 283.12 92.80 283.20 85.75 Z" />
<path fill="#2b0b3d" d=" M 297.70 85.76 C 300.32 85.80 302.94 85.76 305.56 85.80 C 307.10 90.48 309.23 94.99 310.10 99.88 C 311.90 95.41 313.01 90.60 315.36 86.38 C 317.57 85.01 320.70 86.10 323.29 85.83 C 324.32 92.52 325.43 99.20 326.61 105.86 C 326.92 105.87 327.54 105.89 327.85 105.89 C 332.43 100.19 333.64 92.51 337.31 86.22 C 339.56 85.43 342.05 85.90 344.40 85.66 C 347.79 92.65 350.54 99.92 353.61 107.04 C 351.48 107.02 349.34 107.11 347.22 106.85 C 345.91 106.15 345.61 104.48 344.78 103.35 C 341.99 103.40 339.20 103.41 336.41 103.33 C 335.80 104.49 335.23 105.68 334.53 106.80 C 329.66 107.08 324.77 106.74 319.89 106.89 C 319.62 102.39 318.88 97.94 318.14 93.50 C 316.55 97.94 314.97 102.39 313.38 106.83 C 311.24 106.90 309.10 106.92 306.96 106.92 C 305.19 102.35 303.42 97.77 302.26 93.00 C 301.63 97.64 300.68 102.25 300.33 106.93 C 298.26 106.95 296.20 106.96 294.14 106.93 C 294.89 99.81 296.71 92.85 297.70 85.76 Z" />
<path fill="#2b0b3d" d=" M 356.45 85.79 C 358.56 85.77 360.68 85.73 362.80 85.68 C 362.77 91.18 362.80 96.68 362.79 102.18 C 365.35 102.10 367.91 102.07 370.48 102.11 C 370.46 103.72 370.45 105.32 370.46 106.92 C 365.79 107.00 361.12 107.00 356.46 106.88 C 356.40 99.85 356.54 92.82 356.45 85.79 Z" />
<path fill="#fefffe" d=" M 340.80 92.12 C 341.66 94.55 342.58 96.96 343.53 99.35 C 341.62 99.36 339.71 99.35 337.80 99.33 C 338.79 96.93 339.81 94.53 340.80 92.12 Z" />
<path fill="#2b0b3d" d=" M 105.25 100.32 C 105.84 100.32 107.01 100.32 107.60 100.32 C 107.61 100.90 107.62 102.05 107.63 102.63 C 107.03 102.62 105.84 102.59 105.25 102.58 C 105.25 102.02 105.25 100.89 105.25 100.32 Z" />
<path fill="#2b0b3d" d=" M 85.38 102.29 C 86.19 102.51 86.99 102.73 87.80 102.95 C 87.78 103.60 87.74 104.92 87.72 105.58 C 87.06 105.54 85.72 105.45 85.05 105.40 C 85.16 104.36 85.27 103.33 85.38 102.29 Z" />
<path fill="#2b0b3d" d=" M 91.49 104.36 C 92.39 104.48 94.19 104.70 95.08 104.81 C 94.28 105.78 93.71 108.66 91.99 107.13 C 91.86 106.44 91.62 105.05 91.49 104.36 Z" />
<path fill="#2b0b3d" d=" M 87.73 108.61 C 88.93 108.45 90.27 108.42 90.58 109.88 C 90.45 111.74 88.59 111.46 87.24 111.68 C 87.37 110.65 87.53 109.63 87.73 108.61 Z" />
<path fill="#2b0b3d" d=" M 225.47 117.33 C 230.60 117.24 235.96 116.61 240.91 118.28 C 246.51 120.13 247.68 128.60 243.06 132.09 C 240.07 134.90 235.76 135.31 231.85 135.40 C 231.83 138.48 231.84 141.57 231.85 144.65 C 229.72 144.61 227.58 144.59 225.45 144.57 C 225.50 135.49 225.48 126.41 225.47 117.33 Z" />
<path fill="#fefffe" d=" M 231.86 121.55 C 233.75 121.75 235.70 121.76 237.51 122.44 C 239.60 123.60 240.08 126.56 238.58 128.39 C 237.05 130.53 234.18 130.43 231.84 130.62 C 231.83 127.60 231.82 124.57 231.86 121.55 Z" />
<path fill="#2b0b3d" d=" M 278.60 123.75 C 283.26 122.86 289.03 122.68 292.57 126.42 C 297.60 131.16 295.86 140.71 289.47 143.41 C 283.14 147.06 272.61 145.31 270.68 137.37 C 268.81 131.50 273.01 125.49 278.60 123.75 Z" />
<path fill="#2b0b3d" d=" M 296.01 123.58 C 302.22 123.52 308.43 123.59 314.64 123.54 C 314.63 125.10 314.62 126.66 314.64 128.22 C 312.58 128.23 310.53 128.23 308.49 128.21 C 308.44 133.66 308.45 139.12 308.51 144.57 C 306.44 144.59 304.37 144.62 302.31 144.63 C 302.26 139.15 302.30 133.68 302.28 128.20 C 300.21 128.22 298.15 128.25 296.10 128.29 C 296.07 126.72 296.04 125.15 296.01 123.58 Z" />
<path fill="#2b0b3d" d=" M 356.27 123.52 C 362.42 123.59 368.57 123.58 374.72 123.53 C 374.71 125.09 374.70 126.65 374.70 128.22 C 372.66 128.24 370.62 128.23 368.59 128.22 C 368.55 133.68 368.59 139.14 368.55 144.60 C 366.44 144.62 364.34 144.62 362.24 144.60 C 362.17 139.14 362.23 133.67 362.21 128.21 C 360.05 128.24 357.89 128.26 355.74 128.26 C 355.91 126.68 356.09 125.10 356.27 123.52 Z" />
<path fill="#2b0b3d" d=" M 377.78 123.56 C 379.93 123.56 382.08 123.57 384.23 123.58 C 384.26 130.59 384.22 137.60 384.22 144.61 C 382.06 144.62 379.90 144.61 377.75 144.57 C 377.83 137.56 377.85 130.56 377.78 123.56 Z" />
<path fill="#2b0b3d" d=" M 386.34 123.63 C 388.64 123.57 390.94 123.56 393.24 123.53 C 395.19 128.37 397.29 133.14 399.09 138.04 C 400.71 133.01 403.01 128.26 405.11 123.42 C 407.21 123.44 409.30 123.46 411.41 123.50 C 408.66 130.60 405.59 137.58 402.62 144.60 C 400.19 144.63 397.76 144.63 395.33 144.60 C 392.32 137.62 389.22 130.67 386.34 123.63 Z" />
<path fill="#2b0b3d" d=" M 249.41 123.58 C 253.88 123.71 258.45 122.99 262.86 123.93 C 265.99 124.57 268.04 127.83 267.47 130.93 C 266.83 133.55 264.16 134.67 262.04 135.86 C 264.43 138.69 266.65 141.66 268.94 144.57 C 266.36 144.62 263.79 144.64 261.22 144.60 C 259.19 141.80 257.23 138.95 255.42 136.01 C 255.45 138.87 255.44 141.74 255.51 144.61 C 253.47 144.62 251.44 144.62 249.40 144.61 C 249.41 137.60 249.38 130.59 249.41 123.58 Z" />
<path fill="#2b0b3d" d=" M 317.80 123.57 C 322.81 123.55 327.83 123.57 332.84 123.53 C 332.85 124.99 332.87 126.45 332.90 127.91 C 330.01 127.88 327.12 127.88 324.23 127.92 C 324.23 129.21 324.24 130.50 324.25 131.79 C 326.94 131.78 329.63 131.79 332.33 131.74 C 332.28 133.21 332.24 134.69 332.20 136.17 C 329.52 136.16 326.85 136.16 324.17 136.18 C 324.22 137.57 324.25 138.97 324.28 140.36 C 327.17 140.34 330.06 140.35 332.95 140.38 C 332.89 141.79 332.84 143.21 332.79 144.63 C 327.78 144.60 322.77 144.66 317.77 144.58 C 317.83 137.57 317.79 130.57 317.80 123.57 Z" />
<path fill="#2b0b3d" d=" M 341.10 125.26 C 345.05 122.71 349.93 123.25 354.38 123.59 C 354.27 125.19 354.18 126.79 354.10 128.40 C 351.09 128.31 347.77 127.45 344.98 128.97 C 342.03 131.44 342.22 136.53 344.95 139.11 C 347.91 140.32 351.21 139.57 354.31 139.53 C 354.37 141.17 354.43 142.81 354.50 144.44 C 349.92 144.66 344.84 145.71 340.65 143.31 C 334.16 139.62 334.77 128.82 341.10 125.26 Z" />
<path fill="#2b0b3d" d=" M 413.63 123.52 C 417.87 123.57 422.11 123.56 426.36 123.51 C 426.36 124.96 426.36 126.41 426.38 127.86 C 424.17 127.90 421.98 128.00 419.79 128.15 C 419.78 129.33 419.78 130.52 419.78 131.71 C 421.98 131.75 424.18 131.77 426.38 131.78 C 426.35 133.23 426.33 134.69 426.31 136.14 C 424.14 136.17 421.97 136.18 419.80 136.21 C 419.79 137.55 419.79 138.90 419.79 140.24 C 422.00 140.29 424.21 140.35 426.43 140.41 C 426.39 141.80 426.37 143.18 426.38 144.57 C 422.34 144.59 418.29 144.78 414.26 144.53 L 413.77 143.86 C 413.48 137.08 413.75 130.29 413.63 123.52 Z" />
<path fill="#fefffe" d=" M 255.39 127.52 C 257.15 127.73 258.91 128.03 260.66 128.34 C 260.68 129.59 260.69 130.84 260.69 132.09 C 258.99 132.44 257.28 132.74 255.57 133.01 C 255.48 131.18 255.42 129.35 255.39 127.52 Z" />
<path fill="#fefffe" d=" M 280.45 128.45 C 282.89 127.78 286.30 127.76 287.69 130.28 C 289.14 132.02 288.79 134.49 288.42 136.55 C 287.10 140.39 281.23 141.48 278.54 138.50 C 276.12 135.50 276.45 129.91 280.45 128.45 Z" />
<path fill="#2b0b3d" d=" M 225.50 155.21 C 227.62 155.21 229.74 155.20 231.87 155.20 C 231.81 162.62 231.85 170.03 231.82 177.45 C 235.15 177.44 238.48 177.44 241.81 177.44 C 241.81 179.08 241.81 180.72 241.83 182.37 C 236.38 182.43 230.94 182.37 225.50 182.42 C 225.45 173.35 225.50 164.28 225.50 155.21 Z" />
<path fill="#2b0b3d" d=" M 244.60 161.25 C 249.61 161.22 254.63 161.19 259.64 161.23 C 259.64 162.70 259.65 164.16 259.67 165.63 C 256.73 165.60 253.79 165.58 250.85 165.56 C 250.84 166.55 250.84 168.55 250.84 169.54 C 253.67 169.52 256.51 169.51 259.34 169.55 C 259.35 170.95 259.36 172.35 259.40 173.75 C 256.54 173.79 253.68 173.80 250.83 173.81 C 250.81 175.17 250.80 176.52 250.79 177.88 C 253.74 177.92 256.70 177.94 259.66 178.01 C 259.65 179.48 259.66 180.95 259.68 182.41 C 254.64 182.37 249.60 182.35 244.57 182.38 C 244.60 175.34 244.53 168.30 244.60 161.25 Z" />
<path fill="#2b0b3d" d=" M 270.62 161.28 C 273.16 161.21 275.72 161.21 278.27 161.32 C 280.98 168.43 284.18 175.34 287.11 182.36 C 284.91 182.40 282.70 182.42 280.50 182.48 C 279.74 181.25 279.01 180.01 278.27 178.78 C 275.43 178.85 272.60 178.87 269.78 178.85 C 269.23 180.04 268.69 181.23 268.15 182.43 C 266.05 182.39 263.95 182.36 261.85 182.32 C 264.69 175.27 267.81 168.34 270.62 161.28 Z" />
<path fill="#2b0b3d" d=" M 292.25 163.37 C 297.09 159.87 303.34 160.64 308.84 161.70 C 308.62 163.34 308.37 164.98 308.09 166.62 C 304.44 165.93 300.13 164.34 296.81 166.82 C 293.04 169.08 293.41 175.95 297.73 177.42 C 299.30 177.92 300.97 177.87 302.60 177.98 C 302.96 175.57 303.24 173.15 303.44 170.73 C 305.43 170.74 307.43 170.74 309.43 170.74 C 309.49 174.25 309.48 177.76 309.49 181.26 C 303.87 182.85 297.39 183.99 292.09 180.83 C 285.91 177.20 286.15 166.94 292.25 163.37 Z" />
<path fill="#2b0b3d" d=" M 314.79 161.33 C 316.93 161.28 319.08 161.24 321.22 161.23 C 321.35 166.26 320.78 171.37 321.57 176.36 C 323.68 178.84 328.31 178.81 330.48 176.40 C 331.18 171.41 330.64 166.33 330.78 161.31 C 332.88 161.26 335.00 161.23 337.11 161.23 C 336.83 166.41 337.62 171.67 336.65 176.78 C 334.83 181.93 328.56 183.36 323.69 182.74 C 320.45 182.30 316.44 181.20 315.45 177.63 C 314.17 172.30 315.04 166.75 314.79 161.33 Z" />
<path fill="#2b0b3d" d=" M 342.89 161.32 C 347.93 161.20 352.98 161.13 358.03 161.29 C 358.02 162.35 358.01 164.49 358.01 165.56 C 355.14 165.57 352.27 165.56 349.40 165.53 C 349.39 166.87 349.38 168.21 349.37 169.55 C 352.10 169.52 354.83 169.52 357.57 169.50 C 357.57 170.58 357.56 172.74 357.56 173.82 C 354.83 173.80 352.11 173.81 349.39 173.77 C 349.38 175.15 349.36 176.52 349.34 177.90 C 352.20 177.95 355.07 177.96 357.94 178.04 C 357.93 179.49 357.92 180.94 357.91 182.39 C 352.92 182.32 347.92 182.41 342.93 182.42 C 342.89 175.39 342.95 168.35 342.89 161.32 Z" />
<path fill="#fefffe" d=" M 271.12 174.60 C 272.18 172.31 273.18 170.00 274.11 167.66 C 275.07 169.97 276.04 172.29 276.98 174.61 C 275.03 174.61 273.07 174.60 271.12 174.60 Z" />
</svg>
